<mxfile host="app.diagrams.net" agent="Mozilla/5.0 (X11; Linux x86_64) AppleWebKit/537.36 (KHTML, like Gecko) Chrome/115.0.0.0 Safari/537.36" version="24.8.0">
  <diagram id="C5RBs43oDa-KdzZeNtuy" name="Page-1">
    <mxGraphModel dx="842" dy="491" grid="1" gridSize="10" guides="1" tooltips="1" connect="1" arrows="1" fold="1" page="1" pageScale="1" pageWidth="827" pageHeight="1169" math="0" shadow="0">
      <root>
        <mxCell id="WIyWlLk6GJQsqaUBKTNV-0" />
        <mxCell id="WIyWlLk6GJQsqaUBKTNV-1" parent="WIyWlLk6GJQsqaUBKTNV-0" />
        <mxCell id="WIyWlLk6GJQsqaUBKTNV-3" value="Department Manager" style="rounded=1;whiteSpace=wrap;html=1;fontSize=12;glass=0;strokeWidth=1;shadow=0;" parent="WIyWlLk6GJQsqaUBKTNV-1" vertex="1">
          <mxGeometry x="380" y="80" width="120" height="40" as="geometry" />
        </mxCell>
        <mxCell id="Z8Yh2GZpVSMbXNt8EOp2-0" value="Start" style="ellipse;whiteSpace=wrap;html=1;" vertex="1" parent="WIyWlLk6GJQsqaUBKTNV-1">
          <mxGeometry x="400" width="80" height="30" as="geometry" />
        </mxCell>
        <mxCell id="Z8Yh2GZpVSMbXNt8EOp2-1" value="" style="endArrow=classic;html=1;rounded=0;" edge="1" parent="WIyWlLk6GJQsqaUBKTNV-1">
          <mxGeometry width="50" height="50" relative="1" as="geometry">
            <mxPoint x="439" y="30" as="sourcePoint" />
            <mxPoint x="439" y="80" as="targetPoint" />
            <Array as="points">
              <mxPoint x="439" y="60" />
            </Array>
          </mxGeometry>
        </mxCell>
        <mxCell id="Z8Yh2GZpVSMbXNt8EOp2-7" value="Approve&amp;nbsp;&lt;div&gt;Vendor&lt;/div&gt;" style="rhombus;whiteSpace=wrap;html=1;shadow=0;fontFamily=Helvetica;fontSize=12;align=center;strokeWidth=1;spacing=6;spacingTop=-4;" vertex="1" parent="WIyWlLk6GJQsqaUBKTNV-1">
          <mxGeometry x="410" y="280" width="100" height="80" as="geometry" />
        </mxCell>
        <mxCell id="Z8Yh2GZpVSMbXNt8EOp2-8" value="Create Budget" style="rounded=1;whiteSpace=wrap;html=1;fontSize=12;glass=0;strokeWidth=1;shadow=0;" vertex="1" parent="WIyWlLk6GJQsqaUBKTNV-1">
          <mxGeometry x="380" y="170" width="120" height="40" as="geometry" />
        </mxCell>
        <mxCell id="Z8Yh2GZpVSMbXNt8EOp2-9" value="" style="endArrow=classic;html=1;rounded=0;" edge="1" parent="WIyWlLk6GJQsqaUBKTNV-1">
          <mxGeometry width="50" height="50" relative="1" as="geometry">
            <mxPoint x="440.5" y="120" as="sourcePoint" />
            <mxPoint x="440.5" y="170" as="targetPoint" />
            <Array as="points">
              <mxPoint x="440.5" y="150" />
            </Array>
          </mxGeometry>
        </mxCell>
        <mxCell id="Z8Yh2GZpVSMbXNt8EOp2-17" value="" style="strokeWidth=2;html=1;shape=mxgraph.flowchart.annotation_2;align=left;labelPosition=right;pointerEvents=1;direction=south;" vertex="1" parent="WIyWlLk6GJQsqaUBKTNV-1">
          <mxGeometry x="235" y="210" width="410" height="50" as="geometry" />
        </mxCell>
        <mxCell id="Z8Yh2GZpVSMbXNt8EOp2-20" value="Create" style="text;html=1;align=center;verticalAlign=middle;resizable=0;points=[];autosize=1;strokeColor=none;fillColor=none;" vertex="1" parent="WIyWlLk6GJQsqaUBKTNV-1">
          <mxGeometry x="285" y="210" width="60" height="30" as="geometry" />
        </mxCell>
        <mxCell id="Z8Yh2GZpVSMbXNt8EOp2-21" value="Approve" style="text;html=1;align=center;verticalAlign=middle;resizable=0;points=[];autosize=1;strokeColor=none;fillColor=none;" vertex="1" parent="WIyWlLk6GJQsqaUBKTNV-1">
          <mxGeometry x="540" y="210" width="70" height="30" as="geometry" />
        </mxCell>
        <mxCell id="Z8Yh2GZpVSMbXNt8EOp2-24" style="edgeStyle=orthogonalEdgeStyle;rounded=0;orthogonalLoop=1;jettySize=auto;html=1;exitX=0.5;exitY=0;exitDx=0;exitDy=0;exitPerimeter=0;entryX=1;entryY=0;entryDx=0;entryDy=0;entryPerimeter=0;" edge="1" parent="WIyWlLk6GJQsqaUBKTNV-1" source="Z8Yh2GZpVSMbXNt8EOp2-17" target="Z8Yh2GZpVSMbXNt8EOp2-17">
          <mxGeometry relative="1" as="geometry" />
        </mxCell>
        <mxCell id="Z8Yh2GZpVSMbXNt8EOp2-25" style="edgeStyle=orthogonalEdgeStyle;rounded=0;orthogonalLoop=1;jettySize=auto;html=1;exitX=0.5;exitY=1;exitDx=0;exitDy=0;exitPerimeter=0;entryX=1;entryY=1;entryDx=0;entryDy=0;entryPerimeter=0;" edge="1" parent="WIyWlLk6GJQsqaUBKTNV-1" source="Z8Yh2GZpVSMbXNt8EOp2-17" target="Z8Yh2GZpVSMbXNt8EOp2-17">
          <mxGeometry relative="1" as="geometry" />
        </mxCell>
        <mxCell id="Z8Yh2GZpVSMbXNt8EOp2-32" style="edgeStyle=orthogonalEdgeStyle;rounded=0;orthogonalLoop=1;jettySize=auto;html=1;exitX=0;exitY=0.5;exitDx=0;exitDy=0;exitPerimeter=0;entryX=0.5;entryY=0;entryDx=0;entryDy=0;" edge="1" parent="WIyWlLk6GJQsqaUBKTNV-1" source="Z8Yh2GZpVSMbXNt8EOp2-27" target="Z8Yh2GZpVSMbXNt8EOp2-31">
          <mxGeometry relative="1" as="geometry" />
        </mxCell>
        <mxCell id="Z8Yh2GZpVSMbXNt8EOp2-27" value="" style="strokeWidth=2;html=1;shape=mxgraph.flowchart.annotation_1;align=left;pointerEvents=1;direction=south;" vertex="1" parent="WIyWlLk6GJQsqaUBKTNV-1">
          <mxGeometry x="90" y="260" width="270" height="20" as="geometry" />
        </mxCell>
        <mxCell id="Z8Yh2GZpVSMbXNt8EOp2-35" style="edgeStyle=orthogonalEdgeStyle;rounded=0;orthogonalLoop=1;jettySize=auto;html=1;exitX=0;exitY=0.5;exitDx=0;exitDy=0;exitPerimeter=0;entryX=0.5;entryY=0;entryDx=0;entryDy=0;" edge="1" parent="WIyWlLk6GJQsqaUBKTNV-1" source="Z8Yh2GZpVSMbXNt8EOp2-28" target="Z8Yh2GZpVSMbXNt8EOp2-33">
          <mxGeometry relative="1" as="geometry" />
        </mxCell>
        <mxCell id="Z8Yh2GZpVSMbXNt8EOp2-28" value="" style="strokeWidth=2;html=1;shape=mxgraph.flowchart.annotation_1;align=left;pointerEvents=1;direction=south;" vertex="1" parent="WIyWlLk6GJQsqaUBKTNV-1">
          <mxGeometry x="460" y="260" width="370" height="20" as="geometry" />
        </mxCell>
        <mxCell id="Z8Yh2GZpVSMbXNt8EOp2-29" value="Vendor" style="rounded=1;whiteSpace=wrap;html=1;fontSize=12;glass=0;strokeWidth=1;shadow=0;" vertex="1" parent="WIyWlLk6GJQsqaUBKTNV-1">
          <mxGeometry x="60" y="280" width="70" height="40" as="geometry" />
        </mxCell>
        <mxCell id="Z8Yh2GZpVSMbXNt8EOp2-30" value="Contract" style="rounded=1;whiteSpace=wrap;html=1;fontSize=12;glass=0;strokeWidth=1;shadow=0;" vertex="1" parent="WIyWlLk6GJQsqaUBKTNV-1">
          <mxGeometry x="310" y="280" width="70" height="40" as="geometry" />
        </mxCell>
        <mxCell id="Z8Yh2GZpVSMbXNt8EOp2-31" value="Invoice" style="rounded=1;whiteSpace=wrap;html=1;fontSize=12;glass=0;strokeWidth=1;shadow=0;" vertex="1" parent="WIyWlLk6GJQsqaUBKTNV-1">
          <mxGeometry x="190" y="280" width="70" height="40" as="geometry" />
        </mxCell>
        <mxCell id="Z8Yh2GZpVSMbXNt8EOp2-33" value="Approve&amp;nbsp;&lt;div&gt;Invoice&lt;/div&gt;" style="rhombus;whiteSpace=wrap;html=1;shadow=0;fontFamily=Helvetica;fontSize=12;align=center;strokeWidth=1;spacing=6;spacingTop=-4;" vertex="1" parent="WIyWlLk6GJQsqaUBKTNV-1">
          <mxGeometry x="595" y="280" width="100" height="80" as="geometry" />
        </mxCell>
        <mxCell id="Z8Yh2GZpVSMbXNt8EOp2-34" value="Approve&lt;div&gt;Contract&lt;/div&gt;" style="rhombus;whiteSpace=wrap;html=1;shadow=0;fontFamily=Helvetica;fontSize=12;align=center;strokeWidth=1;spacing=6;spacingTop=-4;" vertex="1" parent="WIyWlLk6GJQsqaUBKTNV-1">
          <mxGeometry x="780" y="280" width="100" height="80" as="geometry" />
        </mxCell>
        <mxCell id="Z8Yh2GZpVSMbXNt8EOp2-36" value="Vendor Created" style="rounded=1;whiteSpace=wrap;html=1;fontSize=12;glass=0;strokeWidth=1;shadow=0;" vertex="1" parent="WIyWlLk6GJQsqaUBKTNV-1">
          <mxGeometry x="425" y="400" width="70" height="40" as="geometry" />
        </mxCell>
        <mxCell id="Z8Yh2GZpVSMbXNt8EOp2-37" value="Rejected&lt;div&gt;Vendor&lt;/div&gt;" style="rounded=1;whiteSpace=wrap;html=1;fontSize=12;glass=0;strokeWidth=1;shadow=0;" vertex="1" parent="WIyWlLk6GJQsqaUBKTNV-1">
          <mxGeometry x="525" y="340" width="70" height="40" as="geometry" />
        </mxCell>
        <mxCell id="Z8Yh2GZpVSMbXNt8EOp2-38" value="Invoice Created" style="rounded=1;whiteSpace=wrap;html=1;fontSize=12;glass=0;strokeWidth=1;shadow=0;" vertex="1" parent="WIyWlLk6GJQsqaUBKTNV-1">
          <mxGeometry x="610" y="400" width="70" height="40" as="geometry" />
        </mxCell>
        <mxCell id="Z8Yh2GZpVSMbXNt8EOp2-39" value="Rejected&amp;nbsp;&lt;div&gt;Invoice&lt;/div&gt;" style="rounded=1;whiteSpace=wrap;html=1;fontSize=12;glass=0;strokeWidth=1;shadow=0;" vertex="1" parent="WIyWlLk6GJQsqaUBKTNV-1">
          <mxGeometry x="710" y="340" width="70" height="40" as="geometry" />
        </mxCell>
        <mxCell id="Z8Yh2GZpVSMbXNt8EOp2-40" value="Contract Created" style="rounded=1;whiteSpace=wrap;html=1;fontSize=12;glass=0;strokeWidth=1;shadow=0;" vertex="1" parent="WIyWlLk6GJQsqaUBKTNV-1">
          <mxGeometry x="795" y="400" width="70" height="40" as="geometry" />
        </mxCell>
        <mxCell id="Z8Yh2GZpVSMbXNt8EOp2-41" value="Rejected Contract" style="rounded=1;whiteSpace=wrap;html=1;fontSize=12;glass=0;strokeWidth=1;shadow=0;" vertex="1" parent="WIyWlLk6GJQsqaUBKTNV-1">
          <mxGeometry x="900" y="340" width="70" height="40" as="geometry" />
        </mxCell>
        <mxCell id="Z8Yh2GZpVSMbXNt8EOp2-42" value="" style="endArrow=classic;html=1;rounded=0;" edge="1" parent="WIyWlLk6GJQsqaUBKTNV-1">
          <mxGeometry width="50" height="50" relative="1" as="geometry">
            <mxPoint x="459" y="360" as="sourcePoint" />
            <mxPoint x="459" y="400" as="targetPoint" />
          </mxGeometry>
        </mxCell>
        <mxCell id="Z8Yh2GZpVSMbXNt8EOp2-44" value="" style="endArrow=classic;html=1;rounded=0;" edge="1" parent="WIyWlLk6GJQsqaUBKTNV-1">
          <mxGeometry width="50" height="50" relative="1" as="geometry">
            <mxPoint x="645" y="360" as="sourcePoint" />
            <mxPoint x="645" y="400" as="targetPoint" />
          </mxGeometry>
        </mxCell>
        <mxCell id="Z8Yh2GZpVSMbXNt8EOp2-45" value="" style="endArrow=classic;html=1;rounded=0;" edge="1" parent="WIyWlLk6GJQsqaUBKTNV-1">
          <mxGeometry width="50" height="50" relative="1" as="geometry">
            <mxPoint x="830" y="360" as="sourcePoint" />
            <mxPoint x="830" y="400" as="targetPoint" />
          </mxGeometry>
        </mxCell>
        <mxCell id="Z8Yh2GZpVSMbXNt8EOp2-48" style="edgeStyle=orthogonalEdgeStyle;rounded=0;orthogonalLoop=1;jettySize=auto;html=1;" edge="1" parent="WIyWlLk6GJQsqaUBKTNV-1">
          <mxGeometry relative="1" as="geometry">
            <mxPoint x="562" y="341.70000000000005" as="targetPoint" />
            <mxPoint x="510" y="320" as="sourcePoint" />
            <Array as="points">
              <mxPoint x="510" y="321" />
              <mxPoint x="563" y="321" />
            </Array>
          </mxGeometry>
        </mxCell>
        <mxCell id="Z8Yh2GZpVSMbXNt8EOp2-50" style="edgeStyle=orthogonalEdgeStyle;rounded=0;orthogonalLoop=1;jettySize=auto;html=1;" edge="1" parent="WIyWlLk6GJQsqaUBKTNV-1">
          <mxGeometry relative="1" as="geometry">
            <mxPoint x="747" y="341.70000000000005" as="targetPoint" />
            <mxPoint x="695" y="320" as="sourcePoint" />
            <Array as="points">
              <mxPoint x="695" y="321" />
              <mxPoint x="748" y="321" />
            </Array>
          </mxGeometry>
        </mxCell>
        <mxCell id="Z8Yh2GZpVSMbXNt8EOp2-51" style="edgeStyle=orthogonalEdgeStyle;rounded=0;orthogonalLoop=1;jettySize=auto;html=1;" edge="1" parent="WIyWlLk6GJQsqaUBKTNV-1">
          <mxGeometry relative="1" as="geometry">
            <mxPoint x="932" y="340.00000000000006" as="targetPoint" />
            <mxPoint x="880" y="318.3" as="sourcePoint" />
            <Array as="points">
              <mxPoint x="880" y="319.3" />
              <mxPoint x="933" y="319.3" />
            </Array>
          </mxGeometry>
        </mxCell>
        <mxCell id="Z8Yh2GZpVSMbXNt8EOp2-52" value="Yes" style="text;html=1;align=center;verticalAlign=middle;resizable=0;points=[];autosize=1;strokeColor=none;fillColor=none;" vertex="1" parent="WIyWlLk6GJQsqaUBKTNV-1">
          <mxGeometry x="425" y="360" width="40" height="30" as="geometry" />
        </mxCell>
        <mxCell id="Z8Yh2GZpVSMbXNt8EOp2-53" value="No" style="text;html=1;align=center;verticalAlign=middle;resizable=0;points=[];autosize=1;strokeColor=none;fillColor=none;" vertex="1" parent="WIyWlLk6GJQsqaUBKTNV-1">
          <mxGeometry x="520" y="300" width="40" height="30" as="geometry" />
        </mxCell>
        <mxCell id="Z8Yh2GZpVSMbXNt8EOp2-54" value="Yes" style="text;html=1;align=center;verticalAlign=middle;resizable=0;points=[];autosize=1;strokeColor=none;fillColor=none;" vertex="1" parent="WIyWlLk6GJQsqaUBKTNV-1">
          <mxGeometry x="610" y="360" width="40" height="30" as="geometry" />
        </mxCell>
        <mxCell id="Z8Yh2GZpVSMbXNt8EOp2-56" value="Yes" style="text;html=1;align=center;verticalAlign=middle;resizable=0;points=[];autosize=1;strokeColor=none;fillColor=none;" vertex="1" parent="WIyWlLk6GJQsqaUBKTNV-1">
          <mxGeometry x="795" y="360" width="40" height="30" as="geometry" />
        </mxCell>
        <mxCell id="Z8Yh2GZpVSMbXNt8EOp2-57" value="No" style="text;html=1;align=center;verticalAlign=middle;resizable=0;points=[];autosize=1;strokeColor=none;fillColor=none;" vertex="1" parent="WIyWlLk6GJQsqaUBKTNV-1">
          <mxGeometry x="700" y="300" width="40" height="30" as="geometry" />
        </mxCell>
        <mxCell id="Z8Yh2GZpVSMbXNt8EOp2-58" value="No" style="text;html=1;align=center;verticalAlign=middle;resizable=0;points=[];autosize=1;strokeColor=none;fillColor=none;" vertex="1" parent="WIyWlLk6GJQsqaUBKTNV-1">
          <mxGeometry x="880" y="300" width="40" height="30" as="geometry" />
        </mxCell>
        <mxCell id="Z8Yh2GZpVSMbXNt8EOp2-60" value="Vendor Rating" style="rounded=1;whiteSpace=wrap;html=1;fontSize=12;glass=0;strokeWidth=1;shadow=0;" vertex="1" parent="WIyWlLk6GJQsqaUBKTNV-1">
          <mxGeometry x="120" y="400" width="70" height="40" as="geometry" />
        </mxCell>
        <mxCell id="Z8Yh2GZpVSMbXNt8EOp2-61" value="" style="endArrow=classic;html=1;rounded=0;entryX=0;entryY=0.5;entryDx=0;entryDy=0;" edge="1" parent="WIyWlLk6GJQsqaUBKTNV-1" target="Z8Yh2GZpVSMbXNt8EOp2-60">
          <mxGeometry width="50" height="50" relative="1" as="geometry">
            <mxPoint x="80" y="320" as="sourcePoint" />
            <mxPoint x="80" y="430" as="targetPoint" />
            <Array as="points">
              <mxPoint x="80" y="420" />
            </Array>
          </mxGeometry>
        </mxCell>
        <mxCell id="Z8Yh2GZpVSMbXNt8EOp2-62" value="" style="endArrow=classic;html=1;rounded=0;entryX=1;entryY=0.5;entryDx=0;entryDy=0;exitX=0;exitY=0.5;exitDx=0;exitDy=0;" edge="1" parent="WIyWlLk6GJQsqaUBKTNV-1" source="Z8Yh2GZpVSMbXNt8EOp2-36" target="Z8Yh2GZpVSMbXNt8EOp2-60">
          <mxGeometry width="50" height="50" relative="1" as="geometry">
            <mxPoint x="290" y="410" as="sourcePoint" />
            <mxPoint x="340" y="360" as="targetPoint" />
          </mxGeometry>
        </mxCell>
        <mxCell id="Z8Yh2GZpVSMbXNt8EOp2-64" value="" style="endArrow=classic;html=1;rounded=0;entryX=0;entryY=0.5;entryDx=0;entryDy=0;exitX=0.75;exitY=1;exitDx=0;exitDy=0;" edge="1" parent="WIyWlLk6GJQsqaUBKTNV-1" source="Z8Yh2GZpVSMbXNt8EOp2-30">
          <mxGeometry width="50" height="50" relative="1" as="geometry">
            <mxPoint x="400" y="490" as="sourcePoint" />
            <mxPoint x="525" y="540" as="targetPoint" />
            <Array as="points">
              <mxPoint x="360" y="540" />
            </Array>
          </mxGeometry>
        </mxCell>
        <mxCell id="Z8Yh2GZpVSMbXNt8EOp2-67" value="Issues&lt;br&gt;Identified" style="rhombus;whiteSpace=wrap;html=1;shadow=0;fontFamily=Helvetica;fontSize=12;align=center;strokeWidth=1;spacing=6;spacingTop=-4;" vertex="1" parent="WIyWlLk6GJQsqaUBKTNV-1">
          <mxGeometry x="525" y="500" width="100" height="80" as="geometry" />
        </mxCell>
        <mxCell id="Z8Yh2GZpVSMbXNt8EOp2-68" value="" style="endArrow=classic;html=1;rounded=0;exitX=0.5;exitY=1;exitDx=0;exitDy=0;entryX=0.5;entryY=0;entryDx=0;entryDy=0;" edge="1" parent="WIyWlLk6GJQsqaUBKTNV-1" source="Z8Yh2GZpVSMbXNt8EOp2-40" target="Z8Yh2GZpVSMbXNt8EOp2-67">
          <mxGeometry width="50" height="50" relative="1" as="geometry">
            <mxPoint x="730" y="550" as="sourcePoint" />
            <mxPoint x="570" y="480" as="targetPoint" />
            <Array as="points">
              <mxPoint x="830" y="480" />
              <mxPoint x="730" y="480" />
              <mxPoint x="575" y="480" />
            </Array>
          </mxGeometry>
        </mxCell>
        <mxCell id="Z8Yh2GZpVSMbXNt8EOp2-72" value="Report Issue" style="rounded=1;whiteSpace=wrap;html=1;fontSize=12;glass=0;strokeWidth=1;shadow=0;" vertex="1" parent="WIyWlLk6GJQsqaUBKTNV-1">
          <mxGeometry x="540" y="620" width="70" height="40" as="geometry" />
        </mxCell>
        <mxCell id="Z8Yh2GZpVSMbXNt8EOp2-73" value="" style="endArrow=classic;html=1;rounded=0;" edge="1" parent="WIyWlLk6GJQsqaUBKTNV-1">
          <mxGeometry width="50" height="50" relative="1" as="geometry">
            <mxPoint x="574.5" y="580" as="sourcePoint" />
            <mxPoint x="574.5" y="620" as="targetPoint" />
          </mxGeometry>
        </mxCell>
        <mxCell id="Z8Yh2GZpVSMbXNt8EOp2-74" value="Yes" style="text;html=1;align=center;verticalAlign=middle;resizable=0;points=[];autosize=1;strokeColor=none;fillColor=none;" vertex="1" parent="WIyWlLk6GJQsqaUBKTNV-1">
          <mxGeometry x="530" y="585" width="40" height="30" as="geometry" />
        </mxCell>
      </root>
    </mxGraphModel>
  </diagram>
</mxfile>
